<svg width="36" height="37" viewBox="0 0 36 37" fill="none" xmlns="http://www.w3.org/2000/svg">
<g clip-path="url(#clip0)" filter="url(#filter0_d)">
<path d="M32 16.5012C32 24.2336 25.7312 30.5024 17.9988 30.5024C10.2688 30.5 4 24.2336 4 16.5012C4 8.7688 10.2688 2.5 18.0012 2.5C25.7337 2.5 32 8.7688 32 16.5012Z" fill="white"/>
<path fill-rule="evenodd" clip-rule="evenodd" d="M18.1581 8.19022C13.4633 8.19022 9.65836 11.9951 9.65836 16.69C9.65836 18.2958 10.1046 19.7987 10.8793 21.0784L9.34455 25.6384L14.0517 24.1331C15.2701 24.8073 16.67 25.1898 18.1606 25.1898C22.8555 25.1898 26.6628 21.3824 26.6628 16.69C26.6579 11.9976 22.853 8.19022 18.1581 8.19022Z" fill="#42B4DF"/>
<path fill-rule="evenodd" clip-rule="evenodd" d="M23.3645 19.8675C23.6268 19.5978 23.5974 19.159 23.2983 18.931L21.641 17.6562C21.4081 17.4772 21.0844 17.4821 20.8589 17.6684L20.2215 18.1931C19.9469 18.4186 19.5595 18.448 19.2531 18.2691C18.5568 17.867 16.6764 15.9866 16.2744 15.2903C16.0978 14.9839 16.1248 14.5965 16.3504 14.3219L16.875 13.6845C17.0613 13.459 17.0662 13.1354 16.8873 12.9025L15.6124 11.2452C15.382 10.9461 14.9431 10.9166 14.6759 11.179L13.3545 12.471C12.9696 12.8461 12.8887 13.4345 13.1583 13.9003L14.3694 16.0013C15.8649 18.0411 16.7058 18.9285 18.5421 20.174L20.6432 21.3851C21.109 21.6523 21.6973 21.5714 22.0724 21.1889L23.3645 19.8675Z" fill="white"/>
</g>
<defs>
<filter id="filter0_d" x="0" y="0.5" width="36" height="36" filterUnits="userSpaceOnUse" color-interpolation-filters="sRGB">
<feFlood flood-opacity="0" result="BackgroundImageFix"/>
<feColorMatrix in="SourceAlpha" type="matrix" values="0 0 0 0 0 0 0 0 0 0 0 0 0 0 0 0 0 0 127 0"/>
<feOffset dy="2"/>
<feGaussianBlur stdDeviation="2"/>
<feColorMatrix type="matrix" values="0 0 0 0 0 0 0 0 0 0 0 0 0 0 0 0 0 0 0.2 0"/>
<feBlend mode="normal" in2="BackgroundImageFix" result="effect1_dropShadow"/>
<feBlend mode="normal" in="SourceGraphic" in2="effect1_dropShadow" result="shape"/>
</filter>
<clipPath id="clip0">
<rect width="28" height="28" fill="white" transform="translate(4 2.5)"/>
</clipPath>
</defs>
</svg>
